<?xml version="1.0" standalone="no"?>
<!DOCTYPE svg PUBLIC "-//W3C//DTD SVG 20010904//EN"
 "http://www.w3.org/TR/2001/REC-SVG-20010904/DTD/svg10.dtd">
<svg version="1.0" xmlns="http://www.w3.org/2000/svg"
 width="873.000000pt" height="597.000000pt" viewBox="0 0 873.000000 597.000000"
 preserveAspectRatio="xMidYMid meet">
<metadata>
Created by potrace 1.13, written by Peter Selinger 2001-2015
</metadata>
<g transform="translate(0.000000,597.000000) scale(0.100000,-0.100000)"
fill="#000000" stroke="none">
<path d="M0 2985 l0 -2985 4365 0 4365 0 0 2985 0 2985 -4365 0 -4365 0 0
-2985z m3650 2496 c0 -5 -15 -18 -34 -29 -55 -33 -236 -182 -303 -251 -103
-105 -134 -174 -134 -297 0 -156 52 -324 147 -470 52 -80 161 -199 212 -232
15 -9 45 -30 67 -47 153 -119 499 -259 755 -305 25 -4 83 -15 130 -24 190 -36
548 -66 786 -66 l131 0 13 43 c7 23 16 51 21 62 5 11 22 76 38 145 49 208 66
309 91 545 10 99 28 230 39 290 12 61 21 113 21 118 0 4 4 7 10 7 15 0 93
-162 156 -323 31 -78 61 -155 68 -172 8 -16 25 -64 40 -105 l27 -75 94 3 95 3
0 -1856 c0 -1423 -3 -1856 -12 -1853 -6 2 -31 51 -54 109 -24 57 -60 136 -80
174 -43 83 -171 278 -208 318 -14 15 -26 32 -26 36 0 17 -254 272 -351 352
-569 471 -1219 641 -1739 454 -108 -39 -255 -116 -351 -185 -46 -33 -87 -60
-91 -60 -5 0 -8 35 -8 78 -1 199 -42 358 -126 490 -37 57 -160 192 -176 192
-4 0 -21 13 -37 28 -64 61 -305 168 -476 212 -67 17 -200 43 -275 55 -367 56
-1027 15 -1400 -87 -41 -11 -93 -24 -115 -30 -22 -5 -48 -11 -59 -14 -16 -5
-18 -1 -13 37 7 66 55 263 89 364 135 403 311 700 619 1040 117 129 236 243
389 371 221 183 318 252 745 526 258 166 815 375 1125 422 105 16 160 19 160
7z m3070 -1524 c24 -12 52 -34 63 -49 49 -65 23 -187 -49 -230 l-37 -22 29 -9
c83 -27 118 -85 112 -183 -3 -52 -9 -70 -34 -100 -54 -67 -90 -79 -251 -82
l-143 -3 0 350 0 351 133 0 c120 0 138 -2 177 -23z m668 -319 c73 -189 132
-346 132 -350 0 -5 -20 -8 -44 -8 l-44 0 -30 78 c-16 42 -32 87 -36 100 -7 21
-11 22 -155 22 l-147 0 -34 -100 -35 -100 -49 0 c-42 0 -47 2 -41 18 4 9 63
163 132 341 68 179 126 329 129 333 3 4 24 8 48 8 l42 0 132 -342z m613 313
c136 -53 210 -210 179 -381 -22 -123 -86 -206 -199 -258 -51 -24 -70 -27 -208
-30 l-153 -4 0 352 0 352 163 -4 c137 -4 171 -8 218 -27z m-1281 -1194 c24
-12 52 -34 63 -49 49 -65 23 -187 -49 -230 l-37 -22 29 -9 c83 -27 118 -85
112 -183 -3 -52 -9 -70 -34 -100 -54 -67 -90 -79 -251 -82 l-143 -3 0 350 0
351 133 0 c120 0 138 -2 177 -23z m668 -319 c73 -189 132 -346 132 -350 0 -5
-20 -8 -44 -8 l-44 0 -30 78 c-16 42 -32 87 -36 100 -7 21 -11 22 -155 22
l-147 0 -34 -100 -35 -100 -49 0 c-42 0 -47 2 -41 18 4 9 63 163 132 341 68
179 126 329 129 333 3 4 24 8 48 8 l42 0 132 -342z m582 307 l0 -35 -100 0
-100 0 0 -315 0 -315 -45 0 -45 0 0 315 0 315 -100 0 -100 0 0 35 0 35 245 0
245 0 0 -35z m350 -1168 c32 -11 35 -16 38 -54 3 -47 -3 -51 -47 -29 -71 37
-190 28 -237 -19 -31 -31 -33 -91 -4 -127 11 -14 57 -45 102 -68 167 -87 211
-134 210 -226 -1 -74 -35 -127 -100 -157 -65 -29 -199 -34 -267 -10 l-50 18
-3 55 c-3 52 -2 53 15 38 32 -29 106 -52 168 -53 104 0 150 35 148 111 -1 50
-39 86 -148 142 -150 78 -193 132 -182 229 7 69 53 120 133 148 48 17 176 18
224 2z m-1600 -20 c24 -12 52 -34 63 -49 49 -65 23 -187 -49 -230 l-37 -22 29
-9 c83 -27 118 -85 112 -183 -3 -52 -9 -70 -34 -100 -54 -67 -90 -79 -251 -82
l-143 -3 0 350 0 351 133 0 c120 0 138 -2 177 -23z m620 -12 l0 -35 -135 0
-135 0 0 -120 0 -120 125 0 125 0 0 -35 0 -35 -125 0 -125 0 0 -125 0 -125
140 0 140 0 0 -35 0 -35 -185 0 -185 0 0 350 0 350 180 0 180 0 0 -35z m560 0
l0 -35 -100 0 -100 0 0 -315 0 -315 -45 0 -45 0 0 315 0 315 -100 0 -100 0 0
35 0 35 245 0 245 0 0 -35z"/>
<path d="M6500 3795 l0 -115 55 0 c100 0 165 47 165 119 0 80 -43 109 -157
110 l-63 1 0 -115z"/>
<path d="M6500 3481 l0 -131 63 0 c75 0 132 15 157 40 30 30 42 91 28 136 -19
55 -59 75 -163 82 l-85 5 0 -132z"/>
<path d="M7149 3707 l-57 -152 59 -3 c33 -2 85 -2 118 0 l59 3 -57 152 c-31
84 -58 153 -61 153 -3 0 -30 -69 -61 -153z"/>
<path d="M7710 3630 l0 -283 93 6 c112 7 156 20 206 63 60 52 84 113 85 214 1
105 -20 165 -74 214 -49 44 -90 56 -212 63 l-98 6 0 -283z"/>
<path d="M6500 2595 l0 -115 55 0 c100 0 165 47 165 119 0 80 -43 109 -157
110 l-63 1 0 -115z"/>
<path d="M6500 2281 l0 -131 63 0 c75 0 132 15 157 40 30 30 42 91 28 136 -19
55 -59 75 -163 82 l-85 5 0 -132z"/>
<path d="M7149 2507 l-57 -152 59 -3 c33 -2 85 -2 118 0 l59 3 -57 152 c-31
84 -58 153 -61 153 -3 0 -30 -69 -61 -153z"/>
<path d="M6500 1395 l0 -115 55 0 c100 0 165 47 165 119 0 80 -43 109 -157
110 l-63 1 0 -115z"/>
<path d="M6500 1081 l0 -131 63 0 c75 0 132 15 157 40 30 30 42 91 28 136 -19
55 -59 75 -163 82 l-85 5 0 -132z"/>
</g>
</svg>
